<?xml version="1.0" encoding="UTF-8" standalone="no"?>
<!-- Created with Inkscape (http://www.inkscape.org/) -->

<svg
   width="1024"
   height="1024"
   viewBox="0 0 270.93333 270.93333"
   version="1.1"
   id="svg1"
   xml:space="preserve"
   inkscape:version="1.4.4 (dcaf3e7d9e, 2026-05-05)"
   sodipodi:docname="gewerber-symbol.svg"
   inkscape:export-filename="../webp/gewerber-symbol-256.webp"
   inkscape:export-xdpi="24"
   inkscape:export-ydpi="24"
   xmlns:inkscape="http://www.inkscape.org/namespaces/inkscape"
   xmlns:sodipodi="http://sodipodi.sourceforge.net/DTD/sodipodi-0.dtd"
   xmlns="http://www.w3.org/2000/svg"
   xmlns:svg="http://www.w3.org/2000/svg"><sodipodi:namedview
     id="namedview1"
     pagecolor="#ffffff"
     bordercolor="#000000"
     borderopacity="0.25"
     inkscape:showpageshadow="2"
     inkscape:pageopacity="0.0"
     inkscape:pagecheckerboard="0"
     inkscape:deskcolor="#d1d1d1"
     inkscape:document-units="px"
     inkscape:zoom="0.13"
     inkscape:cx="-200"
     inkscape:cy="796.15385"
     inkscape:window-width="3440"
     inkscape:window-height="1371"
     inkscape:window-x="0"
     inkscape:window-y="0"
     inkscape:window-maximized="1"
     inkscape:current-layer="layer1" /><defs
     id="defs1" /><g
     inkscape:label="Layer 1"
     inkscape:groupmode="layer"
     id="layer1" /><g
     inkscape:groupmode="layer"
     id="layer2"
     inkscape:label="Layer 2"><g
       id="g1"
       transform="matrix(1.4993484,0,0,1.5769058,-63.397169,-60.150617)"><path
         id="path7"
         style="fill:#2d6cdf;fill-opacity:1;stroke:none;stroke-width:0.281837"
         d="m 132.63376,42.171586 a 81.879913,81.879913 0 0 0 -81.880269,81.879754 81.879913,81.879913 0 0 0 81.880269,81.87976 81.879913,81.879913 0 0 0 79.76929,-63.40905 81.879913,81.879913 0 0 0 2.11047,-18.47071 81.879913,81.879913 0 0 0 -0.65836,-10.36422 h -0.0233 a 81.887398,81.887398 0 0 1 -28.27941,28.83441 54.239582,54.239582 0 0 1 0,5.2e-4 54.239582,54.239582 0 0 1 -51.23667,36.44325 54.239582,54.239582 0 0 1 -54.239582,-54.23958 54.239582,54.239582 0 0 1 54.239582,-54.239584 54.239582,54.239582 0 0 1 35.88618,13.569197 L 189.56,65.198604 A 81.879913,81.879913 0 0 0 132.63376,42.171586 Z" /><path
         id="path16"
         style="fill:#3bb273;fill-opacity:1;stroke:none;stroke-width:0.268824;stroke-opacity:1"
         d="m 185.55198,113.68712 v 28.83493 h 5.2e-4 a 54.239582,54.239582 0 0 0 0,-5.2e-4 81.887398,81.887398 0 0 0 28.27941,-28.83441 h -26.41183 z" /><path
         d="m 185.55198,113.68712 h -55.42969 v 28.83493 h 55.42969 z"
         style="fill:#4cd4a9;fill-opacity:1;stroke:none;stroke-width:0.261839"
         id="path17" /></g></g></svg>
